# Blender 4.3.2
# www.blender.org
o LINK_HEAD_PITCH
v -0.002300 -0.031500 -0.014250
v -0.002300 0.033500 -0.014250
v -0.001992 -0.031500 -0.013100
v -0.001992 0.033500 -0.013100
v -0.001150 -0.031500 -0.012258
v -0.001150 0.033500 -0.012258
v 0.000000 -0.031500 -0.011950
v 0.000000 0.033500 -0.011950
v 0.001150 -0.031500 -0.012258
v 0.001150 0.033500 -0.012258
v 0.001992 -0.031500 -0.013100
v 0.001992 0.033500 -0.013100
v 0.002300 -0.031500 -0.014250
v 0.002300 0.033500 -0.014250
v 0.001992 -0.031500 -0.015400
v 0.001992 0.033500 -0.015400
v 0.001150 -0.031500 -0.016242
v 0.001150 0.033500 -0.016242
v 0.000000 -0.031500 -0.016550
v 0.000000 0.033500 -0.016550
v -0.001150 -0.031500 -0.016242
v -0.001150 0.033500 -0.016242
v -0.001992 -0.031500 -0.015400
v -0.001992 0.033500 -0.015400
v -0.014641 -0.031500 0.007125
v -0.014641 0.033500 0.007125
v -0.014333 -0.031500 0.008275
v -0.014333 0.033500 0.008275
v -0.013491 -0.031500 0.009117
v -0.013491 0.033500 0.009117
v -0.012341 -0.031500 0.009425
v -0.012341 0.033500 0.009425
v -0.011191 -0.031500 0.009117
v -0.011191 0.033500 0.009117
v -0.010349 -0.031500 0.008275
v -0.010349 0.033500 0.008275
v -0.010041 -0.031500 0.007125
v -0.010041 0.033500 0.007125
v -0.010349 -0.031500 0.005975
v -0.010349 0.033500 0.005975
v -0.011191 -0.031500 0.005133
v -0.011191 0.033500 0.005133
v -0.012341 -0.031500 0.004825
v -0.012341 0.033500 0.004825
v -0.013491 -0.031500 0.005133
v -0.013491 0.033500 0.005133
v -0.014333 -0.031500 0.005975
v -0.014333 0.033500 0.005975
v 0.010041 -0.031500 0.007125
v 0.010041 0.033500 0.007125
v 0.010349 -0.031500 0.008275
v 0.010349 0.033500 0.008275
v 0.011191 -0.031500 0.009117
v 0.011191 0.033500 0.009117
v 0.012341 -0.031500 0.009425
v 0.012341 0.033500 0.009425
v 0.013491 -0.031500 0.009117
v 0.013491 0.033500 0.009117
v 0.014333 -0.031500 0.008275
v 0.014333 0.033500 0.008275
v 0.014641 -0.031500 0.007125
v 0.014641 0.033500 0.007125
v 0.014333 -0.031500 0.005975
v 0.014333 0.033500 0.005975
v 0.013491 -0.031500 0.005133
v 0.013491 0.033500 0.005133
v 0.012341 -0.031500 0.004825
v 0.012341 0.033500 0.004825
v 0.011191 -0.031500 0.005133
v 0.011191 0.033500 0.005133
v 0.010349 -0.031500 0.005975
v 0.010349 0.033500 0.005975
v 0.005100 -0.031500 0.012731
v 0.005100 0.033500 0.012731
v 0.005401 -0.031500 0.013856
v 0.005401 0.033500 0.013856
v 0.006225 -0.031500 0.014679
v 0.006225 0.033500 0.014679
v 0.007350 -0.031500 0.014981
v 0.007350 0.033500 0.014981
v 0.008475 -0.031500 0.014679
v 0.008475 0.033500 0.014679
v 0.009299 -0.031500 0.013856
v 0.009299 0.033500 0.013856
v 0.009600 -0.031500 0.012731
v 0.009600 0.033500 0.012731
v 0.009299 -0.031500 0.011606
v 0.009299 0.033500 0.011606
v 0.008475 -0.031500 0.010782
v 0.008475 0.033500 0.010782
v 0.007350 -0.031500 0.010481
v 0.007350 0.033500 0.010481
v 0.006225 -0.031500 0.010782
v 0.006225 0.033500 0.010782
v 0.005401 -0.031500 0.011606
v 0.005401 0.033500 0.011606
v -0.009600 -0.031500 0.012731
v -0.009600 0.033500 0.012731
v -0.009299 -0.031500 0.013856
v -0.009299 0.033500 0.013856
v -0.008475 -0.031500 0.014679
v -0.008475 0.033500 0.014679
v -0.007350 -0.031500 0.014981
v -0.007350 0.033500 0.014981
v -0.006225 -0.031500 0.014679
v -0.006225 0.033500 0.014679
v -0.005401 -0.031500 0.013856
v -0.005401 0.033500 0.013856
v -0.005100 -0.031500 0.012731
v -0.005100 0.033500 0.012731
v -0.005401 -0.031500 0.011606
v -0.005401 0.033500 0.011606
v -0.006225 -0.031500 0.010782
v -0.006225 0.033500 0.010782
v -0.007350 -0.031500 0.010481
v -0.007350 0.033500 0.010481
v -0.008475 -0.031500 0.010782
v -0.008475 0.033500 0.010782
v -0.009299 -0.031500 0.011606
v -0.009299 0.033500 0.011606
v -0.016950 -0.031500 0.000000
v -0.016950 0.033500 0.000000
v -0.016649 -0.031500 0.001125
v -0.016649 0.033500 0.001125
v -0.015825 -0.031500 0.001949
v -0.015825 0.033500 0.001949
v -0.014700 -0.031500 0.002250
v -0.014700 0.033500 0.002250
v -0.013575 -0.031500 0.001949
v -0.013575 0.033500 0.001949
v -0.012751 -0.031500 0.001125
v -0.012751 0.033500 0.001125
v -0.012450 -0.031500 0.000000
v -0.012450 0.033500 0.000000
v -0.012751 -0.031500 -0.001125
v -0.012751 0.033500 -0.001125
v -0.013575 -0.031500 -0.001948
v -0.013575 0.033500 -0.001948
v -0.014700 -0.031500 -0.002250
v -0.014700 0.033500 -0.002250
v -0.015825 -0.031500 -0.001948
v -0.015825 0.033500 -0.001948
v -0.016649 -0.031500 -0.001125
v -0.016649 0.033500 -0.001125
v -0.009600 -0.031500 -0.012731
v -0.009600 0.033500 -0.012731
v -0.009299 -0.031500 -0.011606
v -0.009299 0.033500 -0.011606
v -0.008475 -0.031500 -0.010782
v -0.008475 0.033500 -0.010782
v -0.007350 -0.031500 -0.010481
v -0.007350 0.033500 -0.010481
v -0.006225 -0.031500 -0.010782
v -0.006225 0.033500 -0.010782
v -0.005401 -0.031500 -0.011606
v -0.005401 0.033500 -0.011606
v -0.005100 -0.031500 -0.012731
v -0.005100 0.033500 -0.012731
v -0.005401 -0.031500 -0.013856
v -0.005401 0.033500 -0.013856
v -0.006225 -0.031500 -0.014679
v -0.006225 0.033500 -0.014679
v -0.007350 -0.031500 -0.014980
v -0.007350 0.033500 -0.014980
v -0.008475 -0.031500 -0.014679
v -0.008475 0.033500 -0.014679
v -0.009299 -0.031500 -0.013856
v -0.009299 0.033500 -0.013856
v 0.005100 -0.031500 -0.012731
v 0.005100 0.033500 -0.012731
v 0.005401 -0.031500 -0.011606
v 0.005401 0.033500 -0.011606
v 0.006225 -0.031500 -0.010782
v 0.006225 0.033500 -0.010782
v 0.007350 -0.031500 -0.010481
v 0.007350 0.033500 -0.010481
v 0.008475 -0.031500 -0.010782
v 0.008475 0.033500 -0.010782
v 0.009299 -0.031500 -0.011606
v 0.009299 0.033500 -0.011606
v 0.009600 -0.031500 -0.012731
v 0.009600 0.033500 -0.012731
v 0.009299 -0.031500 -0.013856
v 0.009299 0.033500 -0.013856
v 0.008475 -0.031500 -0.014679
v 0.008475 0.033500 -0.014679
v 0.007350 -0.031500 -0.014980
v 0.007350 0.033500 -0.014980
v 0.006225 -0.031500 -0.014679
v 0.006225 0.033500 -0.014679
v 0.005401 -0.031500 -0.013856
v 0.005401 0.033500 -0.013856
v 0.012450 -0.031500 0.000000
v 0.012450 0.033500 0.000000
v 0.012751 -0.031500 0.001125
v 0.012751 0.033500 0.001125
v 0.013575 -0.031500 0.001949
v 0.013575 0.033500 0.001949
v 0.014700 -0.031500 0.002250
v 0.014700 0.033500 0.002250
v 0.015825 -0.031500 0.001949
v 0.015825 0.033500 0.001949
v 0.016649 -0.031500 0.001125
v 0.016649 0.033500 0.001125
v 0.016950 -0.031500 0.000000
v 0.016950 0.033500 0.000000
v 0.016649 -0.031500 -0.001125
v 0.016649 0.033500 -0.001125
v 0.015825 -0.031500 -0.001948
v 0.015825 0.033500 -0.001948
v 0.014700 -0.031500 -0.002250
v 0.014700 0.033500 -0.002250
v 0.013575 -0.031500 -0.001948
v 0.013575 0.033500 -0.001948
v 0.012751 -0.031500 -0.001125
v 0.012751 0.033500 -0.001125
v -0.003288 -0.031500 -0.008378
v -0.000673 -0.031500 -0.008975
v -0.000673 0.033500 -0.008975
v 0.000000 -0.031500 -0.009000
v 0.002003 0.033500 -0.008774
v 0.002003 -0.031500 -0.008774
v 0.004500 0.033500 -0.007794
v 0.004500 -0.031500 -0.007794
v 0.006597 0.033500 -0.006122
v 0.006597 -0.031500 -0.006122
v 0.008109 0.033500 -0.003905
v 0.008109 -0.031500 -0.003905
v 0.008899 0.033500 -0.001341
v 0.008899 -0.031500 -0.001341
v 0.008899 0.033500 0.001341
v 0.008899 -0.031500 0.001341
v 0.008109 0.033500 0.003905
v 0.008109 -0.031500 0.003905
v 0.006597 0.033500 0.006122
v 0.006597 -0.031500 0.006122
v 0.004500 0.033500 0.007794
v 0.004500 -0.031500 0.007794
v 0.002003 0.033500 0.008774
v 0.002003 -0.031500 0.008774
v -0.000673 0.033500 0.008975
v -0.000673 -0.031500 0.008975
v -0.003288 0.033500 0.008378
v -0.003288 -0.031500 0.008378
v -0.005611 0.033500 0.007037
v -0.005611 -0.031500 0.007037
v -0.007436 0.033500 0.005070
v -0.007436 -0.031500 0.005070
v -0.008600 0.033500 0.002653
v -0.008600 -0.031500 0.002653
v -0.009000 0.033500 0.000000
v -0.009000 -0.031500 0.000000
v -0.008600 0.033500 -0.002653
v -0.008600 -0.031500 -0.002653
v -0.007436 0.033500 -0.005070
v -0.007436 -0.031500 -0.005070
v -0.005611 0.033500 -0.007036
v -0.005611 -0.031500 -0.007036
v -0.003288 0.033500 -0.008378
v 0.000000 -0.031500 -0.019750
v -0.002991 -0.031500 -0.019522
v -0.002991 0.033500 -0.019522
v -0.006859 -0.031500 -0.018521
v -0.006859 0.033500 -0.018521
v -0.010447 -0.031500 -0.016761
v -0.010447 0.033500 -0.016761
v -0.013607 -0.031500 -0.014315
v -0.013607 0.033500 -0.014315
v -0.016210 -0.031500 -0.011282
v -0.016210 0.033500 -0.011282
v -0.018149 -0.031500 -0.007788
v -0.018149 0.033500 -0.007788
v -0.019346 -0.031500 -0.003976
v -0.019346 0.033500 -0.003976
v -0.019750 -0.031500 0.000000
v -0.019750 0.033500 0.000000
v -0.019346 -0.031500 0.003976
v -0.019346 0.033500 0.003976
v -0.018149 -0.031500 0.007789
v -0.018149 0.033500 0.007789
v -0.016210 -0.031500 0.011283
v -0.016210 0.033500 0.011283
v -0.013607 -0.031500 0.014315
v -0.013607 0.033500 0.014315
v -0.010447 -0.031500 0.016761
v -0.010447 0.033500 0.016761
v -0.006859 -0.031500 0.018521
v -0.006859 0.033500 0.018521
v -0.002991 -0.031500 0.019522
v -0.002991 0.033500 0.019522
v 0.001000 -0.031500 0.019725
v 0.001000 0.033500 0.019725
v 0.004950 -0.031500 0.019120
v 0.004950 0.033500 0.019120
v 0.008698 -0.031500 0.017732
v 0.008698 0.033500 0.017732
v 0.012089 -0.031500 0.015618
v 0.012089 0.033500 0.015618
v 0.014985 -0.031500 0.012865
v 0.014985 0.033500 0.012865
v 0.017268 -0.031500 0.009585
v 0.017268 0.033500 0.009585
v 0.018844 -0.031500 0.005912
v 0.018844 0.033500 0.005912
v 0.019649 -0.031500 0.001998
v 0.019649 0.033500 0.001998
v 0.019649 -0.031500 -0.001998
v 0.019649 0.033500 -0.001998
v 0.018844 -0.031500 -0.005912
v 0.018844 0.033500 -0.005912
v 0.017268 -0.031500 -0.009585
v 0.017268 0.033500 -0.009585
v 0.014985 -0.031500 -0.012865
v 0.014985 0.033500 -0.012865
v 0.012089 -0.031500 -0.015618
v 0.012089 0.033500 -0.015618
v 0.008698 -0.031500 -0.017732
v 0.008698 0.033500 -0.017732
v 0.004950 -0.031500 -0.019120
v 0.004950 0.033500 -0.019120
v 0.001000 -0.031500 -0.019725
v 0.001000 0.033500 -0.019725
v 0.003700 0.033500 -0.009740
v -0.003700 0.033500 -0.009740
v 0.009820 0.033500 -0.005625
v -0.011245 0.033500 0.003537
v 0.003700 0.033500 0.017365
v 0.015795 0.033500 0.009953
v 0.009820 0.033500 -0.015765
v -0.011245 0.033500 -0.015765
v -0.011245 0.033500 -0.005625
v -0.011245 0.033500 -0.009740
v -0.003700 0.033500 -0.015765
v -0.009300 0.033500 -0.015765
v 0.003700 0.033500 -0.015765
v 0.015795 0.033500 0.003537
v 0.015795 0.033500 -0.005625
v 0.003700 0.033500 0.009953
v 0.009820 0.033500 0.009953
v -0.003700 0.033500 0.017365
v -0.009300 0.033500 0.009953
v -0.003700 0.033500 0.009953
v -0.011245 0.033500 0.009953
v -0.009300 0.033500 0.003537
v -0.009300 0.033500 -0.005625
v 0.009820 0.033500 0.003537
v -0.009300 0.033500 -0.009740
v 0.009820 0.033500 -0.009740
v 0.015795 0.033500 -0.009740
v 0.009820 -0.031500 -0.009740
v 0.015795 -0.031500 0.009953
v -0.011245 -0.031500 0.003537
v 0.009820 -0.031500 0.003537
v 0.003700 -0.031500 0.017365
v -0.003700 -0.031500 0.017365
v -0.011245 -0.031500 -0.015765
v -0.003700 -0.031500 -0.015765
v -0.011245 -0.031500 -0.009740
v -0.011245 -0.031500 -0.005625
v -0.011245 -0.031500 0.009953
v -0.009300 -0.031500 0.009953
v -0.003700 -0.031500 0.009953
v 0.003700 -0.031500 0.009953
v 0.009820 -0.031500 0.009953
v 0.015795 -0.031500 0.003537
v 0.015795 -0.031500 -0.009740
v 0.009820 -0.031500 -0.015765
v 0.003700 -0.031500 -0.015765
v 0.003700 -0.031500 -0.009740
v 0.009820 -0.031500 -0.005625
v -0.009300 -0.031500 0.003537
v -0.009300 -0.031500 -0.005625
v -0.003700 -0.031500 -0.009740
v -0.009300 -0.031500 -0.009740
v 0.015795 -0.031500 -0.005625
v -0.009300 -0.031500 -0.015765
vn 0.9659 -0.0000 -0.2588
vn 0.7071 -0.0000 -0.7071
vn 0.2588 -0.0000 -0.9659
vn -0.2588 -0.0000 -0.9659
vn -0.7071 -0.0000 -0.7071
vn -0.9659 -0.0000 -0.2588
vn -0.9659 -0.0000 0.2588
vn -0.7071 -0.0000 0.7071
vn -0.2588 -0.0000 0.9659
vn 0.2588 -0.0000 0.9659
vn 0.7071 -0.0000 0.7071
vn 0.9659 -0.0000 0.2588
vn -0.9659 -0.0000 0.2589
vn 0.9659 -0.0000 0.2589
vn 0.2589 -0.0000 -0.9659
vn 0.2589 -0.0000 0.9659
vn -0.2589 -0.0000 -0.9659
vn -0.2589 -0.0000 0.9659
vn 0.2225 -0.0000 0.9749
vn 0.0374 -0.0000 0.9993
vn -0.0747 -0.0012 0.9972
vn -0.1120 -0.0000 0.9937
vn -0.3653 -0.0000 0.9309
vn -0.6235 -0.0000 0.7818
vn -0.8262 -0.0000 0.5633
vn -0.9556 -0.0000 0.2948
vn -1.0000 -0.0000 -0.0000
vn -0.9556 -0.0000 -0.2948
vn -0.8262 -0.0000 -0.5633
vn -0.6235 -0.0000 -0.7818
vn -0.3653 -0.0000 -0.9309
vn -0.0747 -0.0000 -0.9972
vn 0.2225 -0.0000 -0.9749
vn 0.5000 -0.0000 -0.8660
vn 0.7331 -0.0000 -0.6802
vn 0.9010 -0.0000 -0.4339
vn 0.9888 -0.0000 -0.1490
vn 0.9888 -0.0000 0.1490
vn 0.9010 -0.0000 0.4339
vn 0.7331 -0.0000 0.6802
vn 0.5000 -0.0000 0.8660
vn -0.0759 -0.0000 -0.9971
vn -0.2507 -0.0000 -0.9681
vn -0.4404 -0.0000 -0.8978
vn -0.6121 -0.0000 -0.7908
vn -0.7588 -0.0000 -0.6514
vn -0.8744 -0.0000 -0.4853
vn -0.9541 -0.0000 -0.2994
vn -0.9949 -0.0000 -0.1012
vn -0.9949 -0.0000 0.1012
vn -0.9541 -0.0000 0.2994
vn -0.8744 -0.0000 0.4853
vn -0.7588 -0.0000 0.6514
vn -0.6121 -0.0000 0.7908
vn -0.4404 -0.0000 0.8978
vn -0.2507 -0.0000 0.9681
vn -0.0507 -0.0000 0.9987
vn 0.1514 -0.0000 0.9885
vn 0.3473 -0.0000 0.9378
vn 0.5290 -0.0000 0.8486
vn 0.6890 -0.0000 0.7248
vn 0.8208 -0.0000 0.5713
vn 0.9190 -0.0000 0.3944
vn 0.9795 -0.0000 0.2013
vn 1.0000 -0.0000 -0.0000
vn 0.9795 -0.0000 -0.2013
vn 0.9190 -0.0000 -0.3944
vn 0.8208 -0.0000 -0.5713
vn 0.6890 -0.0000 -0.7248
vn 0.5290 -0.0000 -0.8486
vn 0.3473 -0.0000 -0.9378
vn 0.1514 -0.0000 -0.9885
vn 0.0253 -0.0000 -0.9997
vn -0.0507 0.0012 -0.9987
vn -0.0000 1.0000 -0.0000
vn -0.0000 -1.0000 -0.0000
s 0
f 1//1 2//1 3//1
f 3//1 2//1 4//1
f 3//2 4//2 5//2
f 5//2 4//2 6//2
f 5//3 6//3 7//3
f 7//3 6//3 8//3
f 7//4 8//4 9//4
f 9//4 8//4 10//4
f 9//5 10//5 11//5
f 11//5 10//5 12//5
f 11//6 12//6 13//6
f 13//6 12//6 14//6
f 13//7 14//7 15//7
f 15//7 14//7 16//7
f 15//8 16//8 17//8
f 17//8 16//8 18//8
f 17//9 18//9 19//9
f 19//9 18//9 20//9
f 19//10 20//10 21//10
f 21//10 20//10 22//10
f 21//11 22//11 23//11
f 23//11 22//11 24//11
f 23//12 24//12 1//12
f 1//12 24//12 2//12
f 25//1 26//1 27//1
f 27//1 26//1 28//1
f 27//2 28//2 29//2
f 29//2 28//2 30//2
f 29//3 30//3 31//3
f 31//3 30//3 32//3
f 31//4 32//4 33//4
f 33//4 32//4 34//4
f 33//5 34//5 35//5
f 35//5 34//5 36//5
f 35//6 36//6 37//6
f 37//6 36//6 38//6
f 37//7 38//7 39//7
f 39//7 38//7 40//7
f 39//8 40//8 41//8
f 41//8 40//8 42//8
f 41//9 42//9 43//9
f 43//9 42//9 44//9
f 43//10 44//10 45//10
f 45//10 44//10 46//10
f 45//11 46//11 47//11
f 47//11 46//11 48//11
f 47//12 48//12 25//12
f 25//12 48//12 26//12
f 49//1 50//1 51//1
f 51//1 50//1 52//1
f 51//2 52//2 53//2
f 53//2 52//2 54//2
f 53//3 54//3 55//3
f 55//3 54//3 56//3
f 55//4 56//4 57//4
f 57//4 56//4 58//4
f 57//5 58//5 59//5
f 59//5 58//5 60//5
f 59//6 60//6 61//6
f 61//6 60//6 62//6
f 61//7 62//7 63//7
f 63//7 62//7 64//7
f 63//8 64//8 65//8
f 65//8 64//8 66//8
f 65//9 66//9 67//9
f 67//9 66//9 68//9
f 67//10 68//10 69//10
f 69//10 68//10 70//10
f 69//11 70//11 71//11
f 71//11 70//11 72//11
f 71//12 72//12 49//12
f 49//12 72//12 50//12
f 73//1 74//1 75//1
f 75//1 74//1 76//1
f 75//2 76//2 77//2
f 77//2 76//2 78//2
f 77//3 78//3 79//3
f 79//3 78//3 80//3
f 79//4 80//4 81//4
f 81//4 80//4 82//4
f 81//5 82//5 83//5
f 83//5 82//5 84//5
f 83//6 84//6 85//6
f 85//6 84//6 86//6
f 85//13 86//13 87//13
f 87//13 86//13 88//13
f 87//8 88//8 89//8
f 89//8 88//8 90//8
f 89//9 90//9 91//9
f 91//9 90//9 92//9
f 91//10 92//10 93//10
f 93//10 92//10 94//10
f 93//11 94//11 95//11
f 95//11 94//11 96//11
f 95//14 96//14 73//14
f 73//14 96//14 74//14
f 97//1 98//1 99//1
f 99//1 98//1 100//1
f 99//2 100//2 101//2
f 101//2 100//2 102//2
f 101//3 102//3 103//3
f 103//3 102//3 104//3
f 103//4 104//4 105//4
f 105//4 104//4 106//4
f 105//5 106//5 107//5
f 107//5 106//5 108//5
f 107//6 108//6 109//6
f 109//6 108//6 110//6
f 109//13 110//13 111//13
f 111//13 110//13 112//13
f 111//8 112//8 113//8
f 113//8 112//8 114//8
f 113//9 114//9 115//9
f 115//9 114//9 116//9
f 115//10 116//10 117//10
f 117//10 116//10 118//10
f 117//11 118//11 119//11
f 119//11 118//11 120//11
f 119//14 120//14 97//14
f 97//14 120//14 98//14
f 121//1 122//1 123//1
f 123//1 122//1 124//1
f 123//2 124//2 125//2
f 125//2 124//2 126//2
f 125//15 126//15 127//15
f 127//15 126//15 128//15
f 127//4 128//4 129//4
f 129//4 128//4 130//4
f 129//5 130//5 131//5
f 131//5 130//5 132//5
f 131//6 132//6 133//6
f 133//6 132//6 134//6
f 133//7 134//7 135//7
f 135//7 134//7 136//7
f 135//8 136//8 137//8
f 137//8 136//8 138//8
f 137//9 138//9 139//9
f 139//9 138//9 140//9
f 139//16 140//16 141//16
f 141//16 140//16 142//16
f 141//11 142//11 143//11
f 143//11 142//11 144//11
f 143//12 144//12 121//12
f 121//12 144//12 122//12
f 145//1 146//1 147//1
f 147//1 146//1 148//1
f 147//2 148//2 149//2
f 149//2 148//2 150//2
f 149//3 150//3 151//3
f 151//3 150//3 152//3
f 151//4 152//4 153//4
f 153//4 152//4 154//4
f 153//5 154//5 155//5
f 155//5 154//5 156//5
f 155//6 156//6 157//6
f 157//6 156//6 158//6
f 157//13 158//13 159//13
f 159//13 158//13 160//13
f 159//8 160//8 161//8
f 161//8 160//8 162//8
f 161//9 162//9 163//9
f 163//9 162//9 164//9
f 163//10 164//10 165//10
f 165//10 164//10 166//10
f 165//11 166//11 167//11
f 167//11 166//11 168//11
f 167//14 168//14 145//14
f 145//14 168//14 146//14
f 169//1 170//1 171//1
f 171//1 170//1 172//1
f 171//2 172//2 173//2
f 173//2 172//2 174//2
f 173//3 174//3 175//3
f 175//3 174//3 176//3
f 175//4 176//4 177//4
f 177//4 176//4 178//4
f 177//5 178//5 179//5
f 179//5 178//5 180//5
f 179//6 180//6 181//6
f 181//6 180//6 182//6
f 181//13 182//13 183//13
f 183//13 182//13 184//13
f 183//8 184//8 185//8
f 185//8 184//8 186//8
f 185//9 186//9 187//9
f 187//9 186//9 188//9
f 187//10 188//10 189//10
f 189//10 188//10 190//10
f 189//11 190//11 191//11
f 191//11 190//11 192//11
f 191//14 192//14 169//14
f 169//14 192//14 170//14
f 193//1 194//1 195//1
f 195//1 194//1 196//1
f 195//2 196//2 197//2
f 197//2 196//2 198//2
f 197//3 198//3 199//3
f 199//3 198//3 200//3
f 199//17 200//17 201//17
f 201//17 200//17 202//17
f 201//5 202//5 203//5
f 203//5 202//5 204//5
f 203//6 204//6 205//6
f 205//6 204//6 206//6
f 205//7 206//7 207//7
f 207//7 206//7 208//7
f 207//8 208//8 209//8
f 209//8 208//8 210//8
f 209//18 210//18 211//18
f 211//18 210//18 212//18
f 211//10 212//10 213//10
f 213//10 212//10 214//10
f 213//11 214//11 215//11
f 215//11 214//11 216//11
f 215//12 216//12 193//12
f 193//12 216//12 194//12
f 217//19 218//19 219//19
f 219//20 218//20 220//20
f 219//21 220//21 221//21
f 221//22 220//22 222//22
f 221//23 222//23 223//23
f 223//23 222//23 224//23
f 223//24 224//24 225//24
f 225//24 224//24 226//24
f 225//25 226//25 227//25
f 227//25 226//25 228//25
f 227//26 228//26 229//26
f 229//26 228//26 230//26
f 229//27 230//27 231//27
f 231//27 230//27 232//27
f 231//28 232//28 233//28
f 233//28 232//28 234//28
f 233//29 234//29 235//29
f 235//29 234//29 236//29
f 235//30 236//30 237//30
f 237//30 236//30 238//30
f 237//31 238//31 239//31
f 239//31 238//31 240//31
f 239//32 240//32 241//32
f 241//32 240//32 242//32
f 241//33 242//33 243//33
f 243//33 242//33 244//33
f 243//34 244//34 245//34
f 245//34 244//34 246//34
f 245//35 246//35 247//35
f 247//35 246//35 248//35
f 247//36 248//36 249//36
f 249//36 248//36 250//36
f 249//37 250//37 251//37
f 251//37 250//37 252//37
f 251//38 252//38 253//38
f 253//38 252//38 254//38
f 253//39 254//39 255//39
f 255//39 254//39 256//39
f 255//40 256//40 257//40
f 257//40 256//40 258//40
f 257//41 258//41 259//41
f 259//41 258//41 217//41
f 259//19 217//19 219//19
f 260//42 261//42 262//42
f 262//43 261//43 263//43
f 262//43 263//43 264//43
f 264//44 263//44 265//44
f 264//44 265//44 266//44
f 266//45 265//45 267//45
f 266//45 267//45 268//45
f 268//46 267//46 269//46
f 268//46 269//46 270//46
f 270//47 269//47 271//47
f 270//47 271//47 272//47
f 272//48 271//48 273//48
f 272//48 273//48 274//48
f 274//49 273//49 275//49
f 274//49 275//49 276//49
f 276//50 275//50 277//50
f 276//50 277//50 278//50
f 278//51 277//51 279//51
f 278//51 279//51 280//51
f 280//52 279//52 281//52
f 280//52 281//52 282//52
f 282//53 281//53 283//53
f 282//53 283//53 284//53
f 284//54 283//54 285//54
f 284//54 285//54 286//54
f 286//55 285//55 287//55
f 286//55 287//55 288//55
f 288//56 287//56 289//56
f 288//56 289//56 290//56
f 290//57 289//57 291//57
f 290//57 291//57 292//57
f 292//58 291//58 293//58
f 292//58 293//58 294//58
f 294//59 293//59 295//59
f 294//59 295//59 296//59
f 296//60 295//60 297//60
f 296//60 297//60 298//60
f 298//61 297//61 299//61
f 298//61 299//61 300//61
f 300//62 299//62 301//62
f 300//62 301//62 302//62
f 302//63 301//63 303//63
f 302//63 303//63 304//63
f 304//64 303//64 305//64
f 304//64 305//64 306//64
f 306//65 305//65 307//65
f 306//65 307//65 308//65
f 308//66 307//66 309//66
f 308//66 309//66 310//66
f 310//67 309//67 311//67
f 310//67 311//67 312//67
f 312//68 311//68 313//68
f 312//68 313//68 314//68
f 314//69 313//69 315//69
f 314//69 315//69 316//69
f 316//70 315//70 317//70
f 316//70 317//70 318//70
f 318//71 317//71 319//71
f 318//71 319//71 320//71
f 320//72 319//72 321//72
f 320//72 321//72 322//72
f 322//73 321//73 260//73
f 322//74 260//74 262//74
f 172//75 170//75 323//75
f 257//75 259//75 324//75
f 223//75 225//75 325//75
f 44//75 42//75 326//75
f 296//75 327//75 294//75
f 302//75 328//75 300//75
f 314//75 316//75 329//75
f 268//75 330//75 266//75
f 130//75 128//75 326//75
f 128//75 126//75 278//75
f 278//75 126//75 124//75
f 278//75 124//75 276//75
f 276//75 124//75 122//75
f 276//75 122//75 274//75
f 274//75 122//75 144//75
f 274//75 144//75 272//75
f 272//75 144//75 142//75
f 272//75 142//75 140//75
f 140//75 138//75 331//75
f 138//75 136//75 331//75
f 331//75 136//75 134//75
f 331//75 134//75 326//75
f 326//75 134//75 132//75
f 326//75 132//75 130//75
f 140//75 331//75 272//75
f 272//75 331//75 332//75
f 272//75 332//75 270//75
f 333//75 262//75 264//75
f 333//75 264//75 334//75
f 316//75 318//75 329//75
f 329//75 318//75 320//75
f 329//75 320//75 335//75
f 336//75 306//75 204//75
f 310//75 337//75 210//75
f 310//75 210//75 308//75
f 308//75 210//75 208//75
f 308//75 208//75 306//75
f 306//75 208//75 206//75
f 306//75 206//75 204//75
f 328//75 302//75 336//75
f 336//75 302//75 304//75
f 336//75 304//75 306//75
f 338//75 74//75 96//75
f 96//75 94//75 338//75
f 338//75 94//75 92//75
f 338//75 92//75 339//75
f 92//75 90//75 339//75
f 339//75 90//75 88//75
f 339//75 88//75 298//75
f 296//75 80//75 327//75
f 327//75 80//75 78//75
f 327//75 78//75 76//75
f 88//75 86//75 298//75
f 298//75 86//75 84//75
f 298//75 84//75 296//75
f 296//75 84//75 82//75
f 296//75 82//75 80//75
f 286//75 288//75 340//75
f 340//75 288//75 290//75
f 340//75 290//75 327//75
f 327//75 290//75 292//75
f 327//75 292//75 294//75
f 110//75 108//75 340//75
f 108//75 106//75 340//75
f 340//75 106//75 104//75
f 340//75 104//75 286//75
f 286//75 104//75 102//75
f 341//75 116//75 342//75
f 342//75 116//75 114//75
f 342//75 114//75 112//75
f 102//75 100//75 286//75
f 286//75 100//75 98//75
f 286//75 98//75 343//75
f 343//75 98//75 120//75
f 343//75 120//75 341//75
f 341//75 120//75 118//75
f 341//75 118//75 116//75
f 128//75 278//75 326//75
f 326//75 278//75 46//75
f 326//75 46//75 44//75
f 32//75 282//75 343//75
f 343//75 282//75 284//75
f 343//75 284//75 286//75
f 32//75 30//75 282//75
f 282//75 30//75 28//75
f 282//75 28//75 280//75
f 280//75 28//75 26//75
f 280//75 26//75 278//75
f 278//75 26//75 48//75
f 278//75 48//75 46//75
f 344//75 249//75 251//75
f 344//75 251//75 345//75
f 249//75 344//75 247//75
f 247//75 344//75 341//75
f 247//75 341//75 245//75
f 245//75 341//75 243//75
f 243//75 341//75 342//75
f 243//75 342//75 241//75
f 241//75 342//75 338//75
f 241//75 338//75 239//75
f 346//75 233//75 339//75
f 339//75 233//75 235//75
f 339//75 235//75 338//75
f 338//75 235//75 237//75
f 338//75 237//75 239//75
f 225//75 227//75 325//75
f 325//75 227//75 229//75
f 325//75 229//75 346//75
f 346//75 229//75 231//75
f 346//75 231//75 233//75
f 251//75 253//75 345//75
f 345//75 253//75 255//75
f 345//75 255//75 347//75
f 325//75 214//75 337//75
f 337//75 214//75 212//75
f 337//75 212//75 210//75
f 204//75 202//75 336//75
f 336//75 202//75 200//75
f 336//75 200//75 346//75
f 346//75 200//75 198//75
f 198//75 196//75 346//75
f 346//75 196//75 194//75
f 346//75 194//75 325//75
f 325//75 194//75 216//75
f 325//75 216//75 214//75
f 146//75 330//75 332//75
f 332//75 330//75 268//75
f 332//75 268//75 270//75
f 264//75 266//75 334//75
f 334//75 266//75 330//75
f 334//75 330//75 168//75
f 168//75 330//75 146//75
f 148//75 347//75 150//75
f 150//75 347//75 152//75
f 255//75 257//75 347//75
f 347//75 257//75 324//75
f 347//75 324//75 152//75
f 152//75 324//75 154//75
f 162//75 333//75 164//75
f 164//75 333//75 334//75
f 164//75 334//75 166//75
f 166//75 334//75 168//75
f 162//75 160//75 333//75
f 333//75 160//75 158//75
f 333//75 158//75 324//75
f 324//75 158//75 156//75
f 324//75 156//75 154//75
f 42//75 40//75 344//75
f 344//75 40//75 38//75
f 344//75 38//75 341//75
f 341//75 38//75 36//75
f 341//75 36//75 343//75
f 343//75 36//75 34//75
f 343//75 34//75 32//75
f 12//75 10//75 323//75
f 12//75 323//75 14//75
f 333//75 24//75 262//75
f 262//75 24//75 22//75
f 262//75 22//75 322//75
f 322//75 22//75 20//75
f 322//75 20//75 320//75
f 320//75 20//75 18//75
f 320//75 18//75 335//75
f 335//75 18//75 16//75
f 335//75 16//75 14//75
f 10//75 8//75 323//75
f 323//75 8//75 324//75
f 323//75 324//75 219//75
f 219//75 324//75 259//75
f 8//75 6//75 324//75
f 324//75 6//75 4//75
f 324//75 4//75 333//75
f 333//75 4//75 2//75
f 333//75 2//75 24//75
f 42//75 344//75 326//75
f 326//75 344//75 345//75
f 326//75 345//75 331//75
f 331//75 345//75 347//75
f 331//75 347//75 332//75
f 332//75 347//75 148//75
f 332//75 148//75 146//75
f 112//75 110//75 342//75
f 342//75 110//75 340//75
f 342//75 340//75 338//75
f 338//75 340//75 327//75
f 338//75 327//75 74//75
f 74//75 327//75 76//75
f 14//75 323//75 335//75
f 335//75 323//75 170//75
f 335//75 170//75 192//75
f 182//75 180//75 348//75
f 192//75 190//75 335//75
f 335//75 190//75 188//75
f 335//75 188//75 329//75
f 329//75 188//75 186//75
f 329//75 186//75 184//75
f 180//75 178//75 348//75
f 348//75 178//75 176//75
f 348//75 176//75 323//75
f 323//75 176//75 174//75
f 323//75 174//75 172//75
f 184//75 182//75 329//75
f 329//75 182//75 348//75
f 329//75 348//75 314//75
f 314//75 348//75 349//75
f 314//75 349//75 312//75
f 219//75 221//75 323//75
f 323//75 221//75 223//75
f 323//75 223//75 348//75
f 348//75 223//75 325//75
f 348//75 325//75 349//75
f 349//75 325//75 337//75
f 349//75 337//75 312//75
f 312//75 337//75 310//75
f 56//75 54//75 339//75
f 72//75 346//75 50//75
f 50//75 346//75 339//75
f 50//75 339//75 52//75
f 52//75 339//75 54//75
f 298//75 300//75 339//75
f 339//75 300//75 328//75
f 339//75 328//75 56//75
f 56//75 328//75 58//75
f 66//75 336//75 68//75
f 68//75 336//75 346//75
f 68//75 346//75 70//75
f 70//75 346//75 72//75
f 66//75 64//75 336//75
f 336//75 64//75 62//75
f 336//75 62//75 328//75
f 328//75 62//75 60//75
f 328//75 60//75 58//75
f 179//76 181//76 350//76
f 59//76 61//76 351//76
f 39//76 41//76 352//76
f 236//76 234//76 353//76
f 303//76 301//76 351//76
f 293//76 354//76 295//76
f 291//76 289//76 355//76
f 265//76 356//76 267//76
f 19//76 21//76 261//76
f 261//76 21//76 357//76
f 261//76 357//76 263//76
f 358//76 359//76 269//76
f 269//76 359//76 271//76
f 359//76 352//76 133//76
f 133//76 135//76 359//76
f 359//76 135//76 137//76
f 359//76 137//76 271//76
f 127//76 129//76 352//76
f 352//76 129//76 131//76
f 352//76 131//76 133//76
f 137//76 139//76 271//76
f 271//76 139//76 141//76
f 271//76 141//76 273//76
f 273//76 141//76 143//76
f 273//76 143//76 275//76
f 275//76 143//76 121//76
f 275//76 121//76 277//76
f 277//76 121//76 123//76
f 277//76 123//76 125//76
f 41//76 43//76 352//76
f 352//76 43//76 277//76
f 352//76 277//76 127//76
f 127//76 277//76 125//76
f 43//76 45//76 277//76
f 277//76 45//76 47//76
f 277//76 47//76 279//76
f 279//76 47//76 25//76
f 279//76 25//76 281//76
f 281//76 25//76 27//76
f 281//76 360//76 283//76
f 283//76 360//76 285//76
f 99//76 285//76 97//76
f 97//76 285//76 360//76
f 97//76 360//76 119//76
f 119//76 360//76 361//76
f 101//76 103//76 355//76
f 355//76 103//76 105//76
f 105//76 107//76 355//76
f 355//76 107//76 109//76
f 355//76 109//76 362//76
f 362//76 109//76 111//76
f 111//76 113//76 362//76
f 362//76 113//76 115//76
f 362//76 115//76 361//76
f 361//76 115//76 117//76
f 361//76 117//76 119//76
f 99//76 101//76 285//76
f 285//76 101//76 355//76
f 285//76 355//76 287//76
f 287//76 355//76 289//76
f 295//76 81//76 297//76
f 297//76 81//76 83//76
f 297//76 83//76 85//76
f 93//76 363//76 91//76
f 91//76 363//76 364//76
f 91//76 364//76 89//76
f 89//76 364//76 87//76
f 93//76 95//76 363//76
f 363//76 95//76 73//76
f 363//76 73//76 354//76
f 73//76 75//76 354//76
f 354//76 75//76 77//76
f 354//76 77//76 295//76
f 295//76 77//76 79//76
f 295//76 79//76 81//76
f 301//76 299//76 351//76
f 351//76 299//76 297//76
f 351//76 297//76 364//76
f 364//76 297//76 85//76
f 364//76 85//76 87//76
f 303//76 365//76 305//76
f 305//76 365//76 201//76
f 201//76 203//76 305//76
f 305//76 203//76 205//76
f 305//76 205//76 307//76
f 366//76 311//76 309//76
f 311//76 366//76 313//76
f 313//76 366//76 350//76
f 313//76 350//76 315//76
f 315//76 367//76 317//76
f 317//76 367//76 368//76
f 317//76 368//76 319//76
f 350//76 224//76 369//76
f 369//76 224//76 222//76
f 234//76 232//76 353//76
f 353//76 232//76 230//76
f 353//76 230//76 370//76
f 370//76 230//76 228//76
f 370//76 228//76 226//76
f 242//76 240//76 363//76
f 363//76 240//76 238//76
f 363//76 238//76 364//76
f 244//76 362//76 246//76
f 246//76 362//76 361//76
f 246//76 361//76 248//76
f 248//76 361//76 250//76
f 371//76 372//76 252//76
f 252//76 372//76 254//76
f 220//76 218//76 373//76
f 373//76 218//76 217//76
f 373//76 217//76 374//76
f 374//76 217//76 258//76
f 374//76 258//76 372//76
f 372//76 258//76 256//76
f 372//76 256//76 254//76
f 375//76 209//76 211//76
f 375//76 211//76 370//76
f 211//76 213//76 370//76
f 370//76 213//76 215//76
f 370//76 215//76 353//76
f 353//76 215//76 193//76
f 193//76 195//76 353//76
f 353//76 195//76 197//76
f 353//76 197//76 365//76
f 365//76 197//76 199//76
f 365//76 199//76 201//76
f 153//76 373//76 151//76
f 151//76 373//76 374//76
f 151//76 374//76 149//76
f 149//76 374//76 147//76
f 159//76 357//76 157//76
f 157//76 357//76 373//76
f 157//76 373//76 155//76
f 155//76 373//76 153//76
f 159//76 161//76 357//76
f 357//76 161//76 163//76
f 357//76 163//76 376//76
f 376//76 163//76 165//76
f 376//76 165//76 167//76
f 269//76 267//76 358//76
f 358//76 267//76 356//76
f 358//76 356//76 145//76
f 263//76 357//76 265//76
f 265//76 357//76 376//76
f 265//76 376//76 356//76
f 356//76 376//76 167//76
f 356//76 167//76 145//76
f 27//76 29//76 281//76
f 281//76 29//76 31//76
f 281//76 31//76 360//76
f 360//76 31//76 33//76
f 360//76 33//76 361//76
f 361//76 33//76 35//76
f 35//76 37//76 361//76
f 361//76 37//76 371//76
f 361//76 371//76 250//76
f 250//76 371//76 252//76
f 7//76 9//76 369//76
f 21//76 23//76 357//76
f 357//76 23//76 1//76
f 357//76 1//76 373//76
f 373//76 1//76 3//76
f 373//76 3//76 5//76
f 222//76 220//76 369//76
f 369//76 220//76 373//76
f 369//76 373//76 7//76
f 7//76 373//76 5//76
f 261//76 260//76 19//76
f 19//76 260//76 321//76
f 19//76 321//76 17//76
f 17//76 321//76 319//76
f 17//76 319//76 15//76
f 15//76 319//76 368//76
f 15//76 368//76 13//76
f 13//76 368//76 11//76
f 205//76 207//76 307//76
f 307//76 207//76 209//76
f 307//76 209//76 309//76
f 309//76 209//76 375//76
f 309//76 375//76 366//76
f 366//76 375//76 370//76
f 366//76 370//76 350//76
f 350//76 370//76 226//76
f 350//76 226//76 224//76
f 303//76 351//76 365//76
f 365//76 351//76 61//76
f 365//76 61//76 63//76
f 63//76 65//76 365//76
f 365//76 65//76 67//76
f 365//76 67//76 353//76
f 353//76 67//76 69//76
f 353//76 69//76 71//76
f 364//76 49//76 51//76
f 238//76 236//76 364//76
f 364//76 236//76 353//76
f 364//76 353//76 49//76
f 49//76 353//76 71//76
f 51//76 53//76 364//76
f 364//76 53//76 55//76
f 364//76 55//76 351//76
f 351//76 55//76 57//76
f 351//76 57//76 59//76
f 315//76 350//76 367//76
f 367//76 350//76 181//76
f 367//76 181//76 183//76
f 169//76 171//76 369//76
f 183//76 185//76 367//76
f 367//76 185//76 187//76
f 367//76 187//76 368//76
f 368//76 187//76 189//76
f 368//76 189//76 191//76
f 9//76 11//76 369//76
f 369//76 11//76 368//76
f 369//76 368//76 169//76
f 169//76 368//76 191//76
f 171//76 173//76 369//76
f 369//76 173//76 175//76
f 369//76 175//76 350//76
f 350//76 175//76 177//76
f 350//76 177//76 179//76
f 293//76 291//76 354//76
f 354//76 291//76 355//76
f 354//76 355//76 363//76
f 363//76 355//76 362//76
f 363//76 362//76 242//76
f 242//76 362//76 244//76
f 37//76 39//76 371//76
f 371//76 39//76 352//76
f 371//76 352//76 372//76
f 372//76 352//76 359//76
f 372//76 359//76 374//76
f 374//76 359//76 358//76
f 374//76 358//76 147//76
f 147//76 358//76 145//76
